<svg width="1566" height="1568" xmlns="http://www.w3.org/2000/svg" xmlns:xlink="http://www.w3.org/1999/xlink" xml:space="preserve" overflow="hidden"><g transform="translate(-2335 -128)"><path d="M2878.62 596.895 2867.77 614.283C2794.56 745.168 2800.94 909.034 2897.07 1028.91 2993.19 1148.8 3151.75 1190.64 3295.42 1147.63L3309.6 1142.64 3298.39 1149.52C3125.42 1246.03 2921.79 1226.94 2815.1 1093.89 2708.42 960.842 2734.05 757.924 2865.85 610.065Z" fill="#7F7F7F" fill-rule="evenodd"/><path d="M3636.5 1089.38 3636.5 1297.5 3431.23 1297.5 3447.66 1287.98C3525.96 1237.53 3590.86 1169.59 3636.17 1090.03ZM2600.5 1089.38 2600.83 1090.03C2646.14 1169.59 2711.04 1237.53 2789.34 1287.98L2805.77 1297.5 2600.5 1297.5ZM3455.6 362.5 3636.5 362.5 3636.5 555.435 3636.17 554.784C3599.92 491.141 3551.14 434.929 3492.99 389.16ZM2600.5 362.5 2781.4 362.5 2744.02 389.16C2685.86 434.929 2637.08 491.141 2600.83 554.784L2600.5 555.435Z" stroke="#172C51" stroke-width="4.58333" stroke-miterlimit="8" fill-rule="evenodd"/><path d="M2921 830C2921 662.105 3050.84 526 3211 526 3371.16 526 3501 662.105 3501 830 3501 997.895 3371.16 1134 3211 1134 3050.84 1134 2921 997.895 2921 830Z" stroke="#000000" stroke-width="45.8333" stroke-miterlimit="8" fill-rule="evenodd"/><path d="M2732 829.5C2732 616.042 2905.04 443 3118.5 443 3331.96 443 3505 616.042 3505 829.5 3505 1042.96 3331.96 1216 3118.5 1216 2905.04 1216 2732 1042.96 2732 829.5Z" stroke="#000000" stroke-width="45.8333" stroke-miterlimit="8" fill="none" fill-rule="evenodd"/><text font-family="Berlin Sans FB Demi,Berlin Sans FB Demi_MSFontService,sans-serif" font-weight="600" font-size="229" transform="matrix(1 0 0 1 2473.16 1508)">T I </text><text font-family="Berlin Sans FB Demi,Berlin Sans FB Demi_MSFontService,sans-serif" font-weight="600" font-size="229" transform="matrix(1 0 0 1 2776.8 1508)">A</text><text font-family="Berlin Sans FB Demi,Berlin Sans FB Demi_MSFontService,sans-serif" font-weight="600" font-size="229" transform="matrix(1 0 0 1 2993.36 1508)">N Y U E</text><text font-family="Algerian,Algerian_MSFontService,sans-serif" font-weight="400" font-stretch="extra-condensed" font-size="147" transform="matrix(1 0 0 1 2608.36 313)">A R O N M O </text><text font-family="Algerian,Algerian_MSFontService,sans-serif" font-weight="400" font-stretch="extra-condensed" font-size="147" transform="matrix(1 0 0 1 3411.59 313)">O</text><text font-family="Algerian,Algerian_MSFontService,sans-serif" font-weight="400" font-stretch="extra-condensed" font-size="147" transform="matrix(1 0 0 1 3539.93 313)">N</text><path d="M2688.5 487 2724.72 479.31 2732.5 443.5 2740.28 479.31 2776.5 487 2740.28 494.69 2732.5 530.5 2724.72 494.69Z" stroke="#172C51" stroke-width="4.58333" stroke-miterlimit="8" fill-rule="evenodd"/><path d="M3463.5 487 3499.31 479.31 3507 443.5 3514.69 479.31 3550.5 487 3514.69 494.69 3507 530.5 3499.31 494.69Z" stroke="#172C51" stroke-width="4.58333" stroke-miterlimit="8" fill-rule="evenodd"/><path d="M2687.5 1155 2723.31 1147.31 2731 1111.5 2738.69 1147.31 2774.5 1155 2738.69 1162.69 2731 1198.5 2723.31 1162.69Z" stroke="#172C51" stroke-width="4.58333" stroke-miterlimit="8" fill-rule="evenodd"/><path d="M3463.5 1153 3499.31 1145.31 3507 1109.5 3514.69 1145.31 3550.5 1153 3514.69 1160.69 3507 1196.5 3499.31 1160.69Z" stroke="#172C51" stroke-width="4.58333" stroke-miterlimit="8" fill-rule="evenodd"/><path d="M2557.5 830 2593.31 822.31 2601 786.5 2608.69 822.31 2644.5 830 2608.69 837.69 2601 873.5 2593.31 837.69Z" stroke="#172C51" stroke-width="4.58333" stroke-miterlimit="8" fill-rule="evenodd"/><path d="M3593.5 830 3629.31 822.31 3637 786.5 3644.69 822.31 3680.5 830 3644.69 837.69 3637 873.5 3629.31 837.69Z" stroke="#172C51" stroke-width="4.58333" stroke-miterlimit="8" fill-rule="evenodd"/><path d="M3075.5 362 3111.31 354.31 3119 318.5 3126.69 354.31 3162.5 362 3126.69 369.69 3119 405.5 3111.31 369.69Z" stroke="#172C51" stroke-width="4.58333" stroke-miterlimit="8" fill-rule="evenodd"/></g></svg>